<svg width="45" height="45" viewBox="0 0 45 45" fill="none" xmlns="http://www.w3.org/2000/svg">
<g opacity="0.31">
<path d="M0 0H1.73077V45H0V0Z" fill="white"/>
<path d="M3.46154 0H5.19231V3.46154H3.46154V0Z" fill="white"/>
<path d="M1.73077 3.46154H3.46154V6.92308H1.73077V3.46154Z" fill="white"/>
<path d="M6.92308 0H8.65385V1.73077H6.92308V0Z" fill="white"/>
<path d="M10.3846 0H12.1154V1.73077H10.3846V0Z" fill="white"/>
<path d="M8.65385 1.73077H10.3846V3.46154H8.65385V1.73077Z" fill="white"/>
<path d="M5.19231 3.46154H8.65385V6.92308H5.19231V3.46154Z" fill="white"/>
<path d="M8.65385 5.19231H12.1154V6.92308H8.65385V5.19231Z" fill="white"/>
<path d="M10.3846 3.46154H12.1154V5.19231H10.3846V3.46154Z" fill="white"/>
<path d="M6.92308 6.92308H8.65385V10.3846H6.92308V6.92308Z" fill="white"/>
<path d="M8.65385 8.65385H10.3846V10.3846H8.65385V8.65385Z" fill="white"/>
<path d="M5.19231 10.3846H6.92308V13.8462H5.19231V10.3846Z" fill="white"/>
<path d="M1.73077 10.3846H3.46154V12.1154H1.73077V10.3846Z" fill="white"/>
<path d="M1.73077 15.5769H6.92308V17.3077H1.73077V15.5769Z" fill="white"/>
<path d="M6.92308 13.8462H10.3846V15.5769H6.92308V13.8462Z" fill="white"/>
<path d="M10.3846 12.1154H13.8462V13.8462H10.3846V12.1154Z" fill="white"/>
<path d="M12.1154 13.8462H15.5769V15.5769H12.1154V13.8462Z" fill="white"/>
<path d="M13.8462 0H15.5769V3.46154H13.8462V0Z" fill="white"/>
<path d="M17.3077 0H19.0385V8.65385H17.3077V0Z" fill="white"/>
<path d="M15.5769 3.46154H17.3077V8.65385H15.5769V3.46154Z" fill="white"/>
<path d="M13.8462 5.19231H15.5769V12.1154H13.8462V5.19231Z" fill="white"/>
<path d="M15.5769 10.3846H17.3077V13.8462H15.5769V10.3846Z" fill="white"/>
<path d="M19.0385 10.3846H22.5V12.1154H19.0385V10.3846Z" fill="white"/>
<path d="M22.5 8.65385H24.2308V10.3846H22.5V8.65385Z" fill="white"/>
<path d="M20.7692 6.92308H22.5V8.65385H20.7692V6.92308Z" fill="white"/>
<path d="M19.0385 1.73077H20.7692V3.46154H19.0385V1.73077Z" fill="white"/>
<path d="M20.7692 0H22.5V5.19231H20.7692V0Z" fill="white"/>
<path d="M22.5 5.19231H27.6923V6.92308H22.5V5.19231Z" fill="white"/>
<path d="M25.9615 3.46154H27.6923V5.19231H25.9615V3.46154Z" fill="white"/>
<path d="M24.2308 0H25.9615V3.46154H24.2308V0Z" fill="white"/>
<path d="M27.6923 0H29.4231V3.46154H27.6923V0Z" fill="white"/>
<path d="M29.4231 1.73077H31.1538V3.46154H29.4231V1.73077Z" fill="white"/>
<path d="M31.1538 0H32.8846V1.73077H31.1538V0Z" fill="white"/>
<path d="M32.8846 1.73077H34.6154V3.46154H32.8846V1.73077Z" fill="white"/>
<path d="M34.6154 0H36.3462V5.19231H34.6154V0Z" fill="white"/>
<path d="M38.0769 0H39.8077V1.73077H38.0769V0Z" fill="white"/>
<path d="M41.5385 0H43.2692V3.46154H41.5385V0Z" fill="white"/>
<path d="M43.2692 1.73077H45V3.46154H43.2692V1.73077Z" fill="white"/>
<path d="M38.0769 3.46154H41.5385V5.19231H38.0769V3.46154Z" fill="white"/>
<path d="M39.8077 5.19231H45V6.92308H39.8077V5.19231Z" fill="white"/>
<path d="M39.8077 6.92308H41.5385V12.1154H39.8077V6.92308Z" fill="white"/>
<path d="M41.5385 8.65385H45V10.3846H41.5385V8.65385Z" fill="white"/>
<path d="M36.3462 8.65385H39.8077V12.1154H36.3462V8.65385Z" fill="white"/>
<path d="M36.3462 5.19231H38.0769V6.92308H36.3462V5.19231Z" fill="white"/>
<path d="M34.6154 6.92308H36.3462V8.65385H34.6154V6.92308Z" fill="white"/>
<path d="M31.1538 5.19231H34.6154V6.92308H31.1538V5.19231Z" fill="white"/>
<path d="M31.1538 6.92308H32.8846V8.65385H31.1538V6.92308Z" fill="white"/>
<path d="M32.8846 8.65385H34.6154V12.1154H32.8846V8.65385Z" fill="white"/>
<path d="M27.6923 8.65385H29.4231V12.1154H27.6923V8.65385Z" fill="white"/>
<path d="M31.1538 10.3846H32.8846V13.8462H31.1538V10.3846Z" fill="white"/>
<path d="M29.4231 12.1154H31.1538V13.8462H29.4231V12.1154Z" fill="white"/>
<path d="M19.0385 13.8462H20.7692V19.0385H19.0385V13.8462Z" fill="white"/>
<path d="M22.5 13.8462H25.9615V15.5769H22.5V13.8462Z" fill="white"/>
<path d="M24.2308 12.1154H25.9615V13.8462H24.2308V12.1154Z" fill="white"/>
<path d="M13.8462 15.5769H19.0385V17.3077H13.8462V15.5769Z" fill="white"/>
<path d="M15.5769 17.3077H19.0385V20.7692H15.5769V17.3077Z" fill="white"/>
<path d="M20.7692 15.5769H22.5V22.5H20.7692V15.5769Z" fill="white"/>
<path d="M22.5 20.7692H24.2308V24.2308H22.5V20.7692Z" fill="white"/>
<path d="M17.3077 20.7692H19.0385V22.5H17.3077V20.7692Z" fill="white"/>
<path d="M15.5769 22.5H17.3077V24.2308H15.5769V22.5Z" fill="white"/>
<path d="M13.8462 19.0385H15.5769V31.1538H13.8462V19.0385Z" fill="white"/>
<path d="M8.65385 17.3077H13.8462V19.0385H8.65385V17.3077Z" fill="white"/>
<path d="M1.73077 19.0385H10.3846V20.7692H1.73077V19.0385Z" fill="white"/>
<path d="M1.73077 20.7692H5.19231V25.9615H1.73077V20.7692Z" fill="white"/>
<path d="M5.19231 22.5H6.92308V24.2308H5.19231V22.5Z" fill="white"/>
<path d="M6.92308 24.2308H8.65385V27.6923H6.92308V24.2308Z" fill="white"/>
<path d="M5.19231 25.9615H6.92308V27.6923H5.19231V25.9615Z" fill="white"/>
<path d="M3.46154 27.6923H5.19231V29.4231H3.46154V27.6923Z" fill="white"/>
<path d="M1.73077 29.4231H3.46154V32.8846H1.73077V29.4231Z" fill="white"/>
<path d="M3.46154 31.1538H5.19231V32.8846H3.46154V31.1538Z" fill="white"/>
<path d="M1.73077 36.3462H5.19231V38.0769H1.73077V36.3462Z" fill="white"/>
<path d="M5.19231 32.8846H6.92308V36.3462H5.19231V32.8846Z" fill="white"/>
<path d="M6.92308 34.6154H8.65385V39.8077H6.92308V34.6154Z" fill="white"/>
<path d="M5.19231 38.0769H6.92308V39.8077H5.19231V38.0769Z" fill="white"/>
<path d="M1.73077 39.8077H5.19231V41.5385H1.73077V39.8077Z" fill="white"/>
<path d="M1.73077 43.2692H45V45H1.73077V43.2692Z" fill="white"/>
<path d="M3.46154 41.5385H8.65385V43.2692H3.46154V41.5385Z" fill="white"/>
<path d="M8.65385 38.0769H15.5769V39.8077H8.65385V38.0769Z" fill="white"/>
<path d="M10.3846 36.3462H13.8462V38.0769H10.3846V36.3462Z" fill="white"/>
<path d="M10.3846 39.8077H12.1154V43.2692H10.3846V39.8077Z" fill="white"/>
<path d="M15.5769 39.8077H17.3077V41.5385H15.5769V39.8077Z" fill="white"/>
<path d="M19.0385 39.8077H20.7692V41.5385H19.0385V39.8077Z" fill="white"/>
<path d="M15.5769 32.8846H17.3077V36.3462H15.5769V32.8846Z" fill="white"/>
<path d="M6.92308 29.4231H8.65385V32.8846H6.92308V29.4231Z" fill="white"/>
<path d="M8.65385 31.1538H10.3846V34.6154H8.65385V31.1538Z" fill="white"/>
<path d="M10.3846 29.4231H13.8462V32.8846H10.3846V29.4231Z" fill="white"/>
<path d="M12.1154 32.8846H13.8462V36.3462H12.1154V32.8846Z" fill="white"/>
<path d="M10.3846 22.5H12.1154V27.6923H10.3846V22.5Z" fill="white"/>
<path d="M12.1154 24.2308H13.8462V27.6923H12.1154V24.2308Z" fill="white"/>
<path d="M15.5769 27.6923H19.0385V29.4231H15.5769V27.6923Z" fill="white"/>
<path d="M17.3077 29.4231H19.0385V32.8846H17.3077V29.4231Z" fill="white"/>
<path d="M20.7692 24.2308H22.5V25.9615H20.7692V24.2308Z" fill="white"/>
<path d="M19.0385 29.4231H25.9615V31.1538H19.0385V29.4231Z" fill="white"/>
<path d="M20.7692 27.6923H22.5V29.4231H20.7692V27.6923Z" fill="white"/>
<path d="M17.3077 36.3462H19.0385V39.8077H17.3077V36.3462Z" fill="white"/>
<path d="M20.7692 34.6154H22.5V38.0769H20.7692V34.6154Z" fill="white"/>
<path d="M19.0385 36.3462H20.7692V38.0769H19.0385V36.3462Z" fill="white"/>
<path d="M22.5 36.3462H27.6923V39.8077H22.5V36.3462Z" fill="white"/>
<path d="M27.6923 38.0769H29.4231V39.8077H27.6923V38.0769Z" fill="white"/>
<path d="M24.2308 39.8077H25.9615V41.5385H24.2308V39.8077Z" fill="white"/>
<path d="M22.5 31.1538H24.2308V34.6154H22.5V31.1538Z" fill="white"/>
<path d="M24.2308 32.8846H32.8846V34.6154H24.2308V32.8846Z" fill="white"/>
<path d="M27.6923 34.6154H32.8846V36.3462H27.6923V34.6154Z" fill="white"/>
<path d="M31.1538 36.3462H36.3462V38.0769H31.1538V36.3462Z" fill="white"/>
<path d="M36.3462 38.0769H38.0769V39.8077H36.3462V38.0769Z" fill="white"/>
<path d="M32.8846 41.5385H34.6154V43.2692H32.8846V41.5385Z" fill="white"/>
<path d="M29.4231 39.8077H31.1538V43.2692H29.4231V39.8077Z" fill="white"/>
<path d="M27.6923 41.5385H29.4231V43.2692H27.6923V41.5385Z" fill="white"/>
<path d="M24.2308 22.5H25.9615V25.9615H24.2308V22.5Z" fill="white"/>
<path d="M25.9615 24.2308H27.6923V29.4231H25.9615V24.2308Z" fill="white"/>
<path d="M24.2308 27.6923H25.9615V29.4231H24.2308V27.6923Z" fill="white"/>
<path d="M27.6923 25.9615H29.4231V32.8846H27.6923V25.9615Z" fill="white"/>
<path d="M29.4231 31.1538H31.1538V32.8846H29.4231V31.1538Z" fill="white"/>
<path d="M27.6923 15.5769H31.1538V19.0385H27.6923V15.5769Z" fill="white"/>
<path d="M31.1538 17.3077H36.3462V19.0385H31.1538V17.3077Z" fill="white"/>
<path d="M34.6154 13.8462H36.3462V17.3077H34.6154V13.8462Z" fill="white"/>
<path d="M36.3462 15.5769H45V17.3077H36.3462V15.5769Z" fill="white"/>
<path d="M38.0769 12.1154H39.8077V15.5769H38.0769V12.1154Z" fill="white"/>
<path d="M39.8077 13.8462H43.2692V15.5769H39.8077V13.8462Z" fill="white"/>
<path d="M41.5385 12.1154H45V13.8462H41.5385V12.1154Z" fill="white"/>
<path d="M25.9615 19.0385H29.4231V22.5H25.9615V19.0385Z" fill="white"/>
<path d="M27.6923 22.5H36.3462V24.2308H27.6923V22.5Z" fill="white"/>
<path d="M32.8846 19.0385H34.6154V22.5H32.8846V19.0385Z" fill="white"/>
<path d="M29.4231 20.7692H32.8846V22.5H29.4231V20.7692Z" fill="white"/>
<path d="M31.1538 24.2308H32.8846V27.6923H31.1538V24.2308Z" fill="white"/>
<path d="M32.8846 27.6923H34.6154V29.4231H32.8846V27.6923Z" fill="white"/>
<path d="M31.1538 29.4231H32.8846V31.1538H31.1538V29.4231Z" fill="white"/>
<path d="M32.8846 31.1538H34.6154V32.8846H32.8846V31.1538Z" fill="white"/>
<path d="M36.3462 24.2308H38.0769V25.9615H36.3462V24.2308Z" fill="white"/>
<path d="M38.0769 17.3077H39.8077V20.7692H38.0769V17.3077Z" fill="white"/>
<path d="M36.3462 19.0385H38.0769V20.7692H36.3462V19.0385Z" fill="white"/>
<path d="M39.8077 19.0385H41.5385V20.7692H39.8077V19.0385Z" fill="white"/>
<path d="M41.5385 17.3077H43.2692V19.0385H41.5385V17.3077Z" fill="white"/>
<path d="M43.2692 19.0385H45V20.7692H43.2692V19.0385Z" fill="white"/>
<path d="M39.8077 22.5H41.5385V24.2308H39.8077V22.5Z" fill="white"/>
<path d="M43.2692 22.5H45V24.2308H43.2692V22.5Z" fill="white"/>
<path d="M38.0769 25.9615H45V27.6923H38.0769V25.9615Z" fill="white"/>
<path d="M36.3462 27.6923H39.8077V29.4231H36.3462V27.6923Z" fill="white"/>
<path d="M38.0769 29.4231H39.8077V32.8846H38.0769V29.4231Z" fill="white"/>
<path d="M36.3462 31.1538H38.0769V32.8846H36.3462V31.1538Z" fill="white"/>
<path d="M41.5385 29.4231H45V31.1538H41.5385V29.4231Z" fill="white"/>
<path d="M41.5385 31.1538H43.2692V34.6154H41.5385V31.1538Z" fill="white"/>
<path d="M43.2692 32.8846H45V34.6154H43.2692V32.8846Z" fill="white"/>
<path d="M39.8077 32.8846H41.5385V34.6154H39.8077V32.8846Z" fill="white"/>
<path d="M38.0769 34.6154H39.8077V36.3462H38.0769V34.6154Z" fill="white"/>
<path d="M39.8077 36.3462H41.5385V38.0769H39.8077V36.3462Z" fill="white"/>
<path d="M43.2692 36.3462H45V38.0769H43.2692V36.3462Z" fill="white"/>
<path d="M41.5385 38.0769H43.2692V39.8077H41.5385V38.0769Z" fill="white"/>
<path d="M43.2692 39.8077H45V41.5385H43.2692V39.8077Z" fill="white"/>
<path d="M38.0769 39.8077H41.5385V41.5385H38.0769V39.8077Z" fill="white"/>
<path d="M36.3462 41.5385H39.8077V43.2692H36.3462V41.5385Z" fill="white"/>
<path d="M41.5385 41.5385H43.2692V43.2692H41.5385V41.5385Z" fill="white"/>
</g>
<path d="M3 0H14.7778L22.7778 12.6L31.2222 0H43L39.4444 5.4H31.2222L23.2222 18H22.7778L14.7778 5.4H6.55556L3 0Z" fill="white"/>
<path d="M6.55556 10.8H15L22.7778 23.4H23.2222L31.2222 10.8H39.4444L31.6667 22.5L43 39.6H39.4444L31.6667 27.9L29.8889 30.6L39.4444 45H31.2222L23.2222 32.4H22.7778L14.5556 45H6.55556L16.1111 30.6L14.3333 27.9L6.55556 39.6H3L14.3333 22.5L6.55556 10.8Z" fill="white"/>
</svg>
