<svg width="130" height="100" viewBox="0 0 130 100" fill="none" xmlns="http://www.w3.org/2000/svg">
<g opacity="0.05">
<path d="M24.9033 95.2181L30.702 101.158" stroke="#C6C6C6" stroke-width="1.1533" stroke-miterlimit="10" stroke-linecap="round" stroke-linejoin="round"/>
<path d="M4.82031 75.1348L15.5693 86.0251" stroke="#C6C6C6" stroke-width="1.1533" stroke-miterlimit="10" stroke-linecap="round" stroke-linejoin="round"/>
<path d="M22.9238 76.5492L63.5152 116.999" stroke="#C6C6C6" stroke-width="1.1533" stroke-miterlimit="10" stroke-linecap="round" stroke-linejoin="round"/>
<path d="M2.27441 55.8997L10.619 64.1028" stroke="#C6C6C6" stroke-width="1.1533" stroke-miterlimit="10" stroke-linecap="round" stroke-linejoin="round"/>
<path d="M52.0596 88.7123L87.7007 124.353" stroke="#C6C6C6" stroke-width="1.1533" stroke-miterlimit="10" stroke-linecap="round" stroke-linejoin="round"/>
<path d="M-1.68555 34.9678L36.3599 72.8719" stroke="#C6C6C6" stroke-width="1.1533" stroke-miterlimit="10" stroke-linecap="round" stroke-linejoin="round"/>
<path d="M28.1562 47.8381L90.9526 110.634" stroke="#C6C6C6" stroke-width="1.1533" stroke-miterlimit="10" stroke-linecap="round" stroke-linejoin="round"/>
<path d="M2.13379 21.8143L15.4285 35.1091" stroke="#C6C6C6" stroke-width="1.1533" stroke-miterlimit="10" stroke-linecap="round" stroke-linejoin="round"/>
<path d="M80.0635 82.7719L95.0554 97.9052" stroke="#C6C6C6" stroke-width="1.1533" stroke-miterlimit="10" stroke-linecap="round" stroke-linejoin="round"/>
<path d="M-13 -10.1495L64.0811 66.9315" stroke="#C6C6C6" stroke-width="1.1533" stroke-miterlimit="10" stroke-linecap="round" stroke-linejoin="round"/>
<path d="M48.8066 34.6848L124.19 110.069" stroke="#C6C6C6" stroke-width="1.1533" stroke-miterlimit="10" stroke-linecap="round" stroke-linejoin="round"/>
<path d="M15.5713 1.44775L33.109 18.9855" stroke="#C6C6C6" stroke-width="1.1533" stroke-miterlimit="10" stroke-linecap="round" stroke-linejoin="round"/>
<path d="M63.5156 32.4218L112.169 81.0748" stroke="#C6C6C6" stroke-width="1.1533" stroke-miterlimit="10" stroke-linecap="round" stroke-linejoin="round"/>
<path d="M13.8711 -17.2211L49.7951 18.7029" stroke="#C6C6C6" stroke-width="1.1533" stroke-miterlimit="10" stroke-linecap="round" stroke-linejoin="round"/>
<path d="M103.542 55.6169L129 81.0749" stroke="#C6C6C6" stroke-width="1.1533" stroke-miterlimit="10" stroke-linecap="round" stroke-linejoin="round"/>
<path d="M35.7949 -12.1296L85.155 37.0891" stroke="#C6C6C6" stroke-width="1.1533" stroke-miterlimit="10" stroke-linecap="round" stroke-linejoin="round"/>
<path d="M78.9316 14.0355L113.3 48.4038" stroke="#C6C6C6" stroke-width="1.1533" stroke-miterlimit="10" stroke-linecap="round" stroke-linejoin="round"/>
<path d="M39.8965 -25L65.4959 0.599393" stroke="#C6C6C6" stroke-width="1.1533" stroke-miterlimit="10" stroke-linecap="round" stroke-linejoin="round"/>
<path d="M109.481 27.6129L122.776 41.0491" stroke="#C6C6C6" stroke-width="1.1533" stroke-miterlimit="10" stroke-linecap="round" stroke-linejoin="round"/>
<path d="M60.4053 -21.4641L94.2078 12.4799" stroke="#C6C6C6" stroke-width="1.1533" stroke-miterlimit="10" stroke-linecap="round" stroke-linejoin="round"/>
<path d="M102.551 3.85229L110.754 12.0554" stroke="#C6C6C6" stroke-width="1.1533" stroke-miterlimit="10" stroke-linecap="round" stroke-linejoin="round"/>
</g>
</svg>
